<mxfile host="Electron" modified="2024-06-11T10:14:36.500Z" agent="Mozilla/5.0 (Windows NT 10.0; Win64; x64) AppleWebKit/537.36 (KHTML, like Gecko) draw.io/24.2.5 Chrome/120.0.6099.109 Electron/28.1.0 Safari/537.36" etag="KUnUppXAvlXDy5Xdv1PE" version="24.2.5" type="device">
  <diagram name="PÃ¡gina-1" id="Caqu8QoEs9Uua8u-r7KR">
    <mxGraphModel dx="1050" dy="629" grid="1" gridSize="10" guides="1" tooltips="1" connect="1" arrows="1" fold="1" page="1" pageScale="1" pageWidth="827" pageHeight="1169" math="0" shadow="0">
      <root>
        <mxCell id="0" />
        <mxCell id="1" parent="0" />
        <mxCell id="1mot_NjWQ6ybTzx4jUn6-1" value="LIBRO" style="rounded=0;whiteSpace=wrap;html=1;" vertex="1" parent="1">
          <mxGeometry x="90" y="540" width="120" height="60" as="geometry" />
        </mxCell>
        <mxCell id="1mot_NjWQ6ybTzx4jUn6-2" value="USUARIO" style="rounded=0;whiteSpace=wrap;html=1;" vertex="1" parent="1">
          <mxGeometry x="90" y="380" width="120" height="60" as="geometry" />
        </mxCell>
        <mxCell id="1mot_NjWQ6ybTzx4jUn6-5" value="TIENE" style="rhombus;whiteSpace=wrap;html=1;" vertex="1" parent="1">
          <mxGeometry x="270" y="380" width="110" height="60" as="geometry" />
        </mxCell>
        <mxCell id="1mot_NjWQ6ybTzx4jUn6-6" value="CARRO" style="rounded=0;whiteSpace=wrap;html=1;" vertex="1" parent="1">
          <mxGeometry x="430" y="380" width="120" height="60" as="geometry" />
        </mxCell>
        <mxCell id="1mot_NjWQ6ybTzx4jUn6-7" value="COMPRA" style="rounded=0;whiteSpace=wrap;html=1;" vertex="1" parent="1">
          <mxGeometry x="90" y="190" width="120" height="60" as="geometry" />
        </mxCell>
        <mxCell id="1mot_NjWQ6ybTzx4jUn6-9" value="HACE" style="rhombus;whiteSpace=wrap;html=1;" vertex="1" parent="1">
          <mxGeometry x="105" y="290" width="90" height="50" as="geometry" />
        </mxCell>
      </root>
    </mxGraphModel>
  </diagram>
</mxfile>
